Run_30002
nRows=4
nColumns=164

# SIMM Motion File Header:
name Run_30002
datacolumns 164
datarows 4
otherdata 1
range 0.22500000 0.25000000
endheader
time	pelvis_tilt	pelvis_list	pelvis_rotation	pelvis_tx	pelvis_ty	pelvis_tz	hip_flexion_r	hip_adduction_r	hip_rotation_r	knee_angle_r	ankle_angle_r	hip_flexion_l	hip_adduction_l	hip_rotation_l	knee_angle_l	ankle_angle_l	lumbar_extension	lumbar_bending	lumbar_rotation	arm_flex_r	arm_add_r	arm_rot_r	elbow_flex_r	pro_sup_r	arm_flex_l	arm_add_l	arm_rot_l	elbow_flex_l	pro_sup_l	subtalar_angle_r	mtp_angle_r	subtalar_angle_l	mtp_angle_l	wrist_flex_r	wrist_dev_r	wrist_flex_l	wrist_dev_l	LASI_tx	LASI_ty	LASI_tz	RASI_tx	RASI_ty	RASI_tz	LPSI_tx	LPSI_ty	LPSI_tz	RPSI_tx	RPSI_ty	RPSI_tz	RTH1_tx	RTH1_ty	RTH1_tz	RTH2_tx	RTH2_ty	RTH2_tz	RTH3_tx	RTH3_ty	RTH3_tz	LTH1_tx	LTH1_ty	LTH1_tz	LTH2_tx	LTH2_ty	LTH2_tz	LTH3_tx	LTH3_ty	LTH3_tz	RTB1_tx	RTB1_ty	RTB1_tz	RTB2_tx	RTB2_ty	RTB2_tz	RTB3_tx	RTB3_ty	RTB3_tz	LTB1_tx	LTB1_ty	LTB1_tz	LTB2_tx	LTB2_ty	LTB2_tz	LTB3_tx	LTB3_ty	LTB3_tz	RCAL_tx	RCAL_ty	RCAL_tz	RTOE_tx	RTOE_ty	RTOE_tz	RMT5_tx	RMT5_ty	RMT5_tz	LCAL_tx	LCAL_ty	LCAL_tz	LTOE_tx	LTOE_ty	LTOE_tz	LMT5_tx	LMT5_ty	LMT5_tz	LACR_tx	LACR_ty	LACR_tz	RACR_tx	RACR_ty	RACR_tz	CLAV_tx	CLAV_ty	CLAV_tz	C7_tx	C7_ty	C7_tz	RUA1_tx	RUA1_ty	RUA1_tz	RUA2_tx	RUA2_ty	RUA2_tz	RUA3_tx	RUA3_ty	RUA3_tz	RLEL_tx	RLEL_ty	RLEL_tz	RMEL_tx	RMEL_ty	RMEL_tz	LUA1_tx	LUA1_ty	LUA1_tz	LUA2_tx	LUA2_ty	LUA2_tz	LUA3_tx	LUA3_ty	LUA3_tz	LLEL_tx	LLEL_ty	LLEL_tz	LMEL_tx	LMEL_ty	LMEL_tz	RFAsuperior_tx	RFAsuperior_ty	RFAsuperior_tz	RFAradius_tx	RFAradius_ty	RFAradius_tz	RFAulna_tx	RFAulna_ty	RFAulna_tz	LFAsuperior_tx	LFAsuperior_ty	LFAsuperior_tz	LFAradius_tx	LFAradius_ty	LFAradius_tz	LFAulna_tx	LFAulna_ty	LFAulna_tz
      0.22500000	     -1.60067205	      4.09826120	      2.36631682	      0.87207308	      1.03852268	     -0.34567135	     39.64768611	     -1.02657721	      0.24323514	    -86.54318609	     11.84503622	     -0.25470237	      8.96785835	      3.42494983	    -34.90507342	     23.92637836	    -17.30322914	     -5.73429609	    -20.01212161	    -30.72386911	    -23.92570743	      8.95805043	     99.69267561	    114.17180800	     -7.13226624	    -20.63630296	     -1.58502960	    122.10710053	    100.88919285	      0.00000000	      0.00000000	      0.00000000	      0.00000000	      0.00000000	      0.00000000	      0.00000000	      0.00000000	      0.86324432	      1.05100936	     -0.47538718	      0.87309735	      1.04921258	     -0.21438529	      0.68756059	      1.09130077	     -0.37441021	      0.68903238	      1.08194689	     -0.29308616	      0.85776047	      0.88472898	     -0.16792863	      0.96408974	      0.82109870	     -0.17980451	      0.95579269	      0.69458286	     -0.20265768	      0.78020454	      0.84203737	     -0.52113913	      0.82440637	      0.71354925	     -0.50445582	      0.74457037	      0.60762605	     -0.47886119	      1.00753514	      0.46368863	     -0.29494638	      0.94424015	      0.43086014	     -0.22661895	      0.88207476	      0.35429738	     -0.29671572	      0.72392073	      0.37215138	     -0.40515723	      0.65168583	      0.31042570	     -0.45170123	      0.59971431	      0.21423512	     -0.38012621	      0.69074283	      0.31557391	     -0.31124887	      0.85488282	      0.14962949	     -0.31097659	      0.78275322	      0.17534085	     -0.22534043	      0.42287053	      0.14158643	     -0.36649481	      0.64479856	      0.07033111	     -0.33969175	      0.57021842	      0.05446069	     -0.43006299	      0.93186912	      1.50271958	     -0.52933899	      0.86138786	      1.53014569	     -0.18966695	      0.93648028	      1.46312079	     -0.31193529	      0.82289020	      1.55556722	     -0.37340277	      0.79344478	      1.45409692	     -0.11214631	      0.75204590	      1.37274206	     -0.11685095	      0.68321454	      1.40868285	     -0.09744915	      0.59098247	      1.30468060	     -0.06081589	      0.57037730	      1.30766099	     -0.14194905	      0.92316725	      1.40257713	     -0.59743248	      0.93209923	      1.33029372	     -0.57888876	      0.83960515	      1.31132563	     -0.60345394	      0.85482939	      1.14769932	     -0.64093050	      0.79649251	      1.13901640	     -0.57423248	      0.67135934	      1.23103146	     -0.06234158	      0.79131673	      1.13249680	     -0.15166214	      0.76029305	      1.09628108	     -0.09658079	      0.94340748	      1.16415724	     -0.59847053	      1.04905145	      1.21702921	     -0.46184533	      1.07203921	      1.15210891	     -0.48351133
      0.23333300	     -1.86310903	      3.39309588	      2.05290103	      0.87417046	      1.04348130	     -0.34510237	     40.37537235	     -0.30745493	     -0.27336716	    -82.62751062	     11.74955053	     -2.48951524	      8.07938571	      3.62581575	    -32.67530953	     21.16763930	    -16.58460594	     -4.97041550	    -20.10424121	    -32.60513997	    -24.18415339	      8.10907914	    100.34101576	    113.85408504	     -7.77750542	    -20.32086973	     -1.76493198	    123.22916405	    100.76200136	      0.00000000	      0.00000000	      0.00000000	      0.00000000	      0.00000000	      0.00000000	      0.00000000	      0.00000000	      0.86615781	      1.05457830	     -0.47542394	      0.87376929	      1.05518392	     -0.21453475	      0.69002111	      1.09621473	     -0.37523732	      0.69023744	      1.08787447	     -0.29348330	      0.85952855	      0.89203933	     -0.16641946	      0.96609924	      0.82858024	     -0.17847125	      0.95874882	      0.70180520	     -0.20194339	      0.77666530	      0.84648086	     -0.52020154	      0.81586351	      0.71687990	     -0.50301855	      0.73098731	      0.61389379	     -0.47854059	      1.02048992	      0.46706878	     -0.29476532	      0.95957848	      0.42903738	     -0.22717177	      0.90383576	      0.34853955	     -0.29833521	      0.70389041	      0.37801639	     -0.40633244	      0.63104057	      0.31699178	     -0.45256531	      0.57921994	      0.22042989	     -0.38141273	      0.71643919	      0.29587945	     -0.31491473	      0.89210583	      0.14249271	     -0.31414080	      0.81766564	      0.16243967	     -0.22903915	      0.40307019	      0.15117381	     -0.36796011	      0.62114021	      0.06978549	     -0.33973856	      0.54621088	      0.05555989	     -0.42891647	      0.93428778	      1.50950803	     -0.52717403	      0.85944054	      1.53644892	     -0.18949914	      0.93649803	      1.46995715	     -0.30974412	      0.82341694	      1.56107330	     -0.37321026	      0.78968978	      1.46337783	     -0.11279581	      0.74745630	      1.38230984	     -0.11738142	      0.67868952	      1.41946803	     -0.10075674	      0.58326369	      1.31755823	     -0.06556228	      0.56506993	      1.32080157	     -0.14742362	      0.92608372	      1.41000259	     -0.59588517	      0.93441985	      1.33755556	     -0.57794490	      0.84177597	      1.31918039	     -0.60312957	      0.85702064	      1.15517586	     -0.64026992	      0.79784374	      1.14670209	     -0.57370789	      0.66221685	      1.24260596	     -0.06508552	      0.78308555	      1.14198621	     -0.15149565	      0.75003923	      1.10631012	     -0.09725687	      0.94525863	      1.17269093	     -0.59738558	      1.04843990	      1.22839369	     -0.46009954	      1.07241892	      1.16323681	     -0.48062678
      0.24166700	     -2.13575383	      2.60571891	      1.73207085	      0.87649361	      1.04836153	     -0.34443119	     40.87500030	      0.52215124	     -0.81988460	    -78.40221596	     11.39152354	     -4.68637724	      7.07075092	      3.63808266	    -30.42531024	     18.19547288	    -15.83966780	     -4.12124042	    -20.15349781	    -34.49057304	    -24.39882781	      7.17301945	    100.95357841	    113.42523285	     -8.45475730	    -19.98548549	     -1.89547566	    124.28890064	    100.77745639	      0.00000000	      0.00000000	      0.00000000	      0.00000000	      0.00000000	      0.00000000	      0.00000000	      0.00000000	      0.86918009	      1.05813127	     -0.47514294	      0.87475647	      1.06127439	     -0.21448807	      0.69275924	      1.10117814	     -0.37608278	      0.69187736	      1.09380378	     -0.29389665	      0.86114126	      0.89927498	     -0.16498064	      0.96779409	      0.83561145	     -0.17710344	      0.96108578	      0.70858543	     -0.20155782	      0.77330904	      0.85104359	     -0.51927362	      0.80740105	      0.72051525	     -0.50185395	      0.71781676	      0.62053294	     -0.47854082	      1.03287956	      0.47010815	     -0.29453735	      0.97454416	      0.42702287	     -0.22768751	      0.92555449	      0.34273934	     -0.29976754	      0.68440798	      0.38433165	     -0.40783419	      0.61083622	      0.32416334	     -0.45382580	      0.55932659	      0.22706388	     -0.38294286	      0.74289575	      0.27638060	     -0.31840667	      0.92936335	      0.13587756	     -0.31756138	      0.85301418	      0.14983758	     -0.23287113	      0.38403311	      0.16128302	     -0.36935059	      0.59770858	      0.06935192	     -0.33996572	      0.52241354	      0.05702297	     -0.42801952	      0.93662828	      1.51627962	     -0.52508812	      0.85769896	      1.54273623	     -0.18934192	      0.93640154	      1.47667131	     -0.30786434	      0.82395107	      1.56656952	     -0.37295857	      0.78624016	      1.47235199	     -0.11356295	      0.74301681	      1.39177128	     -0.11828677	      0.67432790	      1.43021175	     -0.10454598	      0.57601484	      1.33023549	     -0.07043508	      0.56021051	      1.33352295	     -0.15290815	      0.92919079	      1.41727137	     -0.59418171	      0.93679081	      1.34477061	     -0.57684865	      0.84405611	      1.32710846	     -0.60277476	      0.85899460	      1.16268908	     -0.63971264	      0.79910223	      1.15443352	     -0.57331617	      0.65355559	      1.25401378	     -0.06796739	      0.77535493	      1.15135329	     -0.15128536	      0.74024680	      1.11614783	     -0.09806261	      0.94687734	      1.18113956	     -0.59634946	      1.04767677	      1.23937530	     -0.45836382	      1.07262869	      1.17405834	     -0.47790569
      0.25000000	     -2.44091157	      1.79836824	      1.38757384	      0.87909570	      1.05316976	     -0.34359790	     41.15578526	      1.41764863	     -1.34362600	    -73.84261420	     10.82507475	     -6.76439634	      5.99821698	      3.34921684	    -28.25081759	     14.96151655	    -15.04638763	     -3.27059749	    -20.15220256	    -36.33062779	    -24.51571427	      6.16766357	    101.49080521	    112.86167755	     -9.19392575	    -19.64042377	     -1.97243507	    125.24348053	    101.00075859	      0.00000000	      0.00000000	      0.00000000	      0.00000000	      0.00000000	      0.00000000	      0.00000000	      0.00000000	      0.87239285	      1.06163792	     -0.47443122	      0.87618506	      1.06753510	     -0.21416391	      0.69584886	      1.10622429	     -0.37693804	      0.69414395	      1.09976671	     -0.29431111	      0.86250970	      0.90630859	     -0.16365931	      0.96896978	      0.84184115	     -0.17567246	      0.96240125	      0.71456172	     -0.20165415	      0.77024411	      0.85582508	     -0.51842268	      0.79911374	      0.72467664	     -0.50112996	      0.70532785	      0.62777977	     -0.47898676	      1.04433907	      0.47255325	     -0.29426588	      0.98889284	      0.42467763	     -0.22811393	      0.94720610	      0.33691147	     -0.30093709	      0.66589685	      0.39137196	     -0.40979484	      0.59144376	      0.33228181	     -0.45565474	      0.54054843	      0.23434838	     -0.38490722	      0.77054342	      0.25727125	     -0.32157748	      0.96663868	      0.13016887	     -0.32137241	      0.88905413	      0.13778978	     -0.23688449	      0.36638786	      0.17219444	     -0.37065242	      0.57465166	      0.06903412	     -0.34043242	      0.49905119	      0.05910497	     -0.42765303	      0.93883243	      1.52297651	     -0.52310801	      0.85628344	      1.54897426	     -0.18914750	      0.93618781	      1.48317651	     -0.30637740	      0.82450777	      1.57200306	     -0.37262284	      0.78322920	      1.48083737	     -0.11447585	      0.73884758	      1.40101746	     -0.11964648	      0.67026891	      1.44081523	     -0.10898593	      0.56951899	      1.34250850	     -0.07548164	      0.55604858	      1.34551141	     -0.15839658	      0.93251749	      1.42428220	     -0.59226716	      0.93921054	      1.35187509	     -0.57552394	      0.84649463	      1.33507915	     -0.60236642	      0.86061484	      1.17021179	     -0.63928146	      0.80016494	      1.16220521	     -0.57311552	      0.64568329	      1.26509874	     -0.07104189	      0.76843539	      1.16047201	     -0.15103324	      0.73123797	      1.12564341	     -0.09905557	      0.94812478	      1.18941899	     -0.59539309	      1.04668623	      1.24969810	     -0.45664765	      1.07257582	      1.18435555	     -0.47545518
